<?xml version="1.0" standalone="no"?> <!DOCTYPE svg PUBLIC "-//W3C//DTD SVG 1.0//EN" "http://www.w3.org/TR/2001/REC-SVG-20010904/DTD/svg10.dtd" > <svg xmlns="http://www.w3.org/2000/svg" width="100%" height="100%">
<defs >
<font id="laneposh" horiz-adv-x="474" ><font-face
    font-family="Lane - Posh"
    units-per-em="1000"
    panose-1="2 0 5 6 2 0 0 2 0 4"
    ascent="973"
    descent="-291"
    alphabetic="0" />
<missing-glyph horiz-adv-x="500" />
<glyph unicode=" " glyph-name="space" horiz-adv-x="623" />
<glyph unicode="!" glyph-name="exclam" horiz-adv-x="307" d="M133 169H139L186 122H224L233 675L186 722V728H124L133 169ZM134 718H176L167 179H143L134 718ZM123 47Q123 0 146 -8L188 -50Q194 -56 204 -56Q233 -56 233 -2Q233 33 221 45L180 86Q172 104 154
104Q123 104 123 47ZM133 47Q133 94 154 94Q176 94 176 47Q176 0 154 0Q133 0 133 47Z" />
<glyph unicode="&quot;" glyph-name="quotedbl" horiz-adv-x="259" d="M165 710V469H171L218 422H266V657L219 704V710H165ZM40 710V469H46L93 422H141V657L94 704V710H40ZM84 700V479H50V700H84ZM209 700V479H175V700H209Z" />
<glyph unicode="#" glyph-name="numbersign" horiz-adv-x="534" d="M233 580L193 471L107 470L89 414H96L143 367H155L129 293H54L36 237H43L90 190H92L70 126H77L124 79H185L226 190H274L252 126H259L306 79H368L407 190H492L505 240L457 287L459 293H442L469
368L539 367L556 417L508 465L510 470H507L527 527L479 575L481 580H414L374 471H326L347 527L299 575L301 580H233ZM287 570L247 461H381L421 570H467L428 461L496 460L484 424L414 425L364 283H446L436 247H352L313 136H266L306 247H171L130 136H84L124 247H50L61
283H136L188 425L103 424L114 460L200 461L240 570H287ZM185 283H318L367 425H234L185 283ZM289 368H336L310 293H263L289 368Z" />
<glyph unicode="$" glyph-name="dollar" horiz-adv-x="573" d="M161 -6L162 -7Q172 -7 186 -21Q205 -38 209 -41V-114H215L262 -161H312V-133L340 -161H390V-68Q470 -56 519 -13Q586 42 586 141Q586 213 539 260L537 262V261L516 282Q495 316 459 339Q440 351
390 370V642Q421 633 437 623Q466 581 467 514H473L520 467H566Q562 571 505 626L478 652Q444 702 390 723V796L343 843V849H287V821L265 843V849H209V737Q137 719 96 671Q53 622 53 547Q53 469 107 421Q116 412 125 407L153 378Q156 375 159 373Q179 352 223 336L209
340V38Q186 46 166 61Q140 107 135 176L88 222V229H35Q43 104 112 39Q121 28 133 21L161 -6ZM333 283V17Q404 28 447 69Q495 114 495 182Q495 265 428 307Q404 321 284 359L271 363Q140 404 114 428Q63 474 63 547Q63 631 122 684Q161 719 219 729V839H255V734Q259
735 267 735H288Q294 735 297 734V839H333V730Q412 718 458 662T509 524H477Q475 593 437 640T333 701V421L297 431V707H266Q258 707 255 706V446L219 456V701Q95 671 95 547Q95 491 139 450Q168 424 281 392Q283 391 286 391T295 388Q312 383 336 376T391 359Q412
351 427 344T453 330Q529 282 529 191Q529 103 473 49Q423 0 333 -12V-104H297V-14H290Q282 -14 273 -14T255 -12V-104H219V-6Q139 12 94 75Q51 133 45 219H78Q84 124 142 69Q175 38 219 24V327L255 317V17Q273 14 291 14H297V292L333 283ZM287 305V298L265 320V322Q287
312 319 306L332 302Q349 297 366 292T400 282Q420 275 436 269T465 256Q485 224 485 182Q485 85 390 43V239L343 286V292L287 305ZM152 497Q152 579 209 617V448L216 446L249 411Q223 418 202 426T163 445Q152 467 152 497ZM312 403L324 391L312 394V403ZM536
263V262H537L536 263ZM294 398H293H294Z" />
<glyph unicode="%" glyph-name="percent" horiz-adv-x="727" d="M510 762L378 477Q378 482 379 487V497Q379 567 342 617Q334 627 324 638L297 665Q296 666 296 667T294 669Q250 729 184 729Q116 729 74 670Q35 617 35 547Q35 478 73 425Q93 398 115 384L143 356Q181
318 234 318Q282 318 319 349L153 -9H161L208 -56H258L611 709L563 756L566 762H510ZM396 175Q396 106 433 54Q451 29 473 14L503 -15Q541 -53 594 -53Q662 -53 703 3Q740 55 740 125Q740 211 684 267L658 293Q657 294 657 295T655 297Q612 358 544 358Q475 358
433 299Q396 247 396 175ZM406 175Q406 242 441 292Q480 348 544 348Q606 348 647 291Q683 241 683 175Q683 108 648 58Q609 3 544 3Q482 3 441 59Q406 109 406 175ZM45 547Q45 613 81 663Q122 719 184 719Q247 719 286 663Q322 612 322 547Q322 481 287 431Q248
375 184 375Q122 375 81 431Q45 480 45 547ZM76 547Q76 495 103 453Q134 405 184 405Q232 405 264 453Q291 495 291 547Q291 600 264 641Q234 688 184 688Q133 688 103 641Q76 600 76 547ZM437 175Q437 121 463 81Q495 34 544 34Q593 34 625 81Q651 122 651 175Q651
229 625 269Q593 316 544 316Q491 316 463 270Q437 229 437 175ZM550 752L204 0H169L516 752H550ZM133 497Q133 548 158 586Q186 631 234 631Q245 631 260 626Q281 590 281 547Q281 500 255 459H256Q227 415 184 415Q165 415 149 423Q133 456 133 497ZM494 125Q494
179 519 216Q547 259 594 259Q611 259 620 255Q641 217 641 175Q641 128 616 88H617Q588 44 544 44Q525 44 509 52Q494 88 494 125Z" />
<glyph unicode="&amp;" glyph-name="ampersand" horiz-adv-x="609" d="M518 334Q518 237 492 174Q460 100 385 55Q326 20 267 20Q212 20 168 49Q145 90 145 144Q145 208 200 264Q223 288 257 309T337 350Q486 413 486 534Q486 598 448 636L416 667Q375 729 291
729Q221 729 179 688T137 577Q137 536 172 487Q195 456 215 442L225 432Q45 348 45 193V189Q45 91 111 31Q121 20 132 13L163 -16Q222 -75 326 -75Q445 -75 535 28L567 -9H571L618 -56H676L569 75Q614 153 616 281L569 328V334H518ZM559 324Q557 204 511 125L612
0H571L492 96Q399 -18 276 -18Q180 -18 116 39Q54 97 55 193Q59 362 272 441Q262 439 259 439Q217 439 180 493Q147 539 147 577Q147 643 186 681T291 719Q354 719 391 683T429 584Q429 467 284 406Q190 366 145 319Q88 259 88 194Q88 114 137 62T267 10Q335 10
397 49Q461 90 492 151Q528 218 528 324H559ZM304 469Q337 470 369 511Q398 549 398 584Q398 633 367 662T287 691Q242 691 212 664T181 591Q181 548 213 507Q246 467 289 467Q291 467 295 467T304 469ZM302 479Q297 478 294 478T289 477Q269 477 251 486Q238 511
238 541Q238 583 266 608T337 634Q364 634 379 627Q388 607 388 584Q388 545 356 511Q324 479 304 479H302Z" />
<glyph unicode="&apos;" glyph-name="quotesingle" horiz-adv-x="134" d="M40 710V469H46L93 422H141V657L94 704V710H40ZM84 700V479H50V700H84Z" />
<glyph unicode="(" glyph-name="parenleft" horiz-adv-x="288" d="M297 -275H348Q187 -36 187 212Q187 458 339 673L291 720Q292 721 293 723T295 726H235Q87 506 87 258Q87 7 246 -228H250L297 -275ZM251 -218Q97 9 97 258Q97 504 240 716H275Q130 511 130 262Q130
12 285 -218H251Z" />
<glyph unicode=")" glyph-name="parenright" horiz-adv-x="288" d="M4 -228H9L56 -275H94Q252 -39 252 208Q252 455 106 673L65 713Q63 717 61 720T57 726H-2Q152 508 152 262Q152 15 -2 -214L4 -228ZM6 -218Q162 11 162 262Q162 511 17 716H52Q195 504 195 258Q195
14 40 -218H6Z" />
<glyph unicode="*" glyph-name="asterisk" horiz-adv-x="500" d="M168 568Q106 532 106 510Q106 495 119 492L163 449Q167 445 176 445Q194 445 224 460Q230 422 247 419L289 377Q294 372 300 372Q325 372 325 455Q325 466 325 475T323 492Q337 481 354 474L355
473Q401 445 424 445Q441 445 441 460Q441 469 430 480L392 517Q387 529 368 544L380 551Q441 587 441 606Q441 613 437 617L394 660Q389 674 374 674Q358 674 322 656Q319 678 311 689L269 730Q263 747 250 747Q222 747 222 661V644Q222 634 223 629Q220 631 216
633T205 640H207Q149 674 126 674Q106 674 106 656Q106 640 141 614L170 586Q172 583 180 575Q176 573 173 572T168 568ZM173 559Q204 577 224 583Q204 589 173 607Q116 640 116 656Q116 664 126 664Q141 664 191 637Q205 629 217 622T237 606Q235 617 234 630T232
661Q232 737 250 737Q268 737 268 661Q268 644 267 631T263 606Q271 613 282 621T309 637Q357 664 374 664Q384 664 384 656Q384 640 327 607Q295 589 276 583Q295 577 327 559Q384 526 384 510Q384 502 374 502Q357 502 309 529Q294 537 283 545T263 560Q265 549
266 536T268 505Q268 429 250 429Q232 429 232 505Q232 522 233 535T237 560Q229 552 217 545T191 529Q141 502 126 502Q116 502 116 510Q116 526 173 559ZM249 581H251L253 583L251 585H249L247 583L249 581Z" />
<glyph unicode="+" glyph-name="plus" horiz-adv-x="833" d="M392 606V323H114V273H120L167 226H392V-9H398L445 -56H489V226H766V270L719 317V323H489V553L442 600V606H392ZM432 596V313H709V283H432V0H402V283H124V313H402V596H432Z" />
<glyph unicode="," glyph-name="comma" horiz-adv-x="260" d="M75 51Q75 19 103 3L119 -12V-128H125L172 -175H221V59L174 106V112H119V106Q75 94 75 51ZM85 51Q85 70 98 84T129 99V102H164V-118H129V3Q111 3 98 18T85 51Z" />
<glyph unicode="-" glyph-name="hyphen" horiz-adv-x="603" d="M566 226V270L519 317V323H114V273H120L167 226H566ZM509 283H124V313H509V283Z" />
<glyph unicode="." glyph-name="period" horiz-adv-x="284" d="M103 41Q103 -6 126 -14L168 -56Q174 -62 185 -62Q214 -62 214 -8Q214 26 202 38L162 78Q155 97 135 97Q103 97 103 41ZM113 41Q113 87 135 87Q157 87 157 41Q157 -5 135 -5Q113 -5 113 41Z" />
<glyph unicode="/" glyph-name="slash" horiz-adv-x="292" d="M292 748L-31 -92H-23L23 -139H73L394 695L347 742L349 748H292ZM333 738L18 -82H-15L299 738H333Z" />
<glyph unicode="0" glyph-name="zero" horiz-adv-x="521" d="M29 340Q29 87 146 5L174 -22Q227 -75 310 -75Q438 -75 497 51Q539 144 539 290Q539 511 447 603L420 630Q362 709 260 709Q131 709 72 581Q29 488 29 340ZM39 340Q39 481 80 574Q136 699 260 699Q385
699 441 574Q482 481 482 340Q482 199 441 105Q385 -18 260 -18Q135 -18 80 106Q39 199 39 340ZM73 340Q73 213 105 129Q152 10 261 10Q448 10 448 340Q448 669 261 669Q151 669 105 551Q73 467 73 340ZM162 82H161Q130 168 130 290Q130 418 161 498H162Q207 612
311 612Q349 612 381 595Q396 575 407 546Q438 468 438 340Q438 20 261 20Q213 20 179 44Q169 62 162 82ZM217 176L253 153L398 393L350 440L353 444L311 471L162 225L179 214L217 176ZM177 228L314 456L338 441L201 213L177 228Z" />
<glyph unicode="1" glyph-name="one" horiz-adv-x="521" d="M148 470L153 476L201 428L264 500L265 -9H271L318 -56H365V636L318 683V689H279L274 694L148 546V470ZM158 542L274 680L275 679H308V0H275L274 630L158 497V542Z" />
<glyph unicode="2" glyph-name="two" horiz-adv-x="521" d="M384 403L9 -9H19L66 -56H521V-12L474 34V40H219L490 340L488 341Q525 393 525 461Q525 551 473 600L445 627Q391 708 273 708Q173 708 117 652T60 495V476H66L113 429H162V447Q162 523 204 566T323
610Q368 610 401 592Q422 557 422 508Q422 446 384 403ZM391 396Q432 442 432 508Q432 581 389 624T273 667Q194 667 150 622T105 497V486H70V495Q70 592 123 645T273 698Q363 698 415 649T468 511Q468 435 423 383H424L106 30H464V0H32L391 396Z" />
<glyph unicode="3" glyph-name="three" horiz-adv-x="521" d="M253 24Q195 24 158 48Q141 81 137 120L90 167Q89 168 89 175L39 152Q56 54 121 8L150 -19Q205 -73 304 -73Q407 -73 469 -15Q533 42 533 144Q533 223 484 287Q480 292 477 295T470 303L445 327Q445
328 434 342Q512 372 512 492Q512 561 471 602L440 632Q433 642 425 651T405 669Q355 707 268 707Q107 707 64 569L75 563L118 521L161 500Q194 610 311 610Q364 610 399 595Q410 570 410 541Q410 415 252 415H234L200 416L207 363H212L260 316Q268 317 274 317T284
318H297Q363 318 403 293Q431 253 431 190Q431 114 380 69Q330 24 253 24ZM253 14Q334 14 387 62Q441 110 441 190Q441 278 388 326T247 375H231Q221 375 216 374L211 406L234 405Q420 397 420 541Q420 667 261 667Q138 667 106 560L77 574Q116 697 268 697Q349
697 399 661Q455 620 455 542Q455 400 339 389Q401 375 440 316Q476 260 476 194Q476 144 460 105T415 39T344 -2T254 -16Q81 -16 51 146L81 160Q104 14 253 14Z" />
<glyph unicode="4" glyph-name="four" horiz-adv-x="521" d="M356 -9H362L409 -56H455V124H532V168L485 215V221H455V636L408 683V689L358 688L26 204L41 171H46L93 124H356V-9ZM366 181H47L37 203L363 678L398 679V211H475V181H398V0H366V181ZM367 623L81 210H367V623ZM181
220L357 473V220H181Z" />
<glyph unicode="5" glyph-name="five" horiz-adv-x="521" d="M37 185Q47 64 124 7L154 -21Q210 -76 303 -76Q355 -76 397 -60T469 -14T514 58T530 154Q530 263 472 318L441 348Q382 435 262 435Q209 435 161 415V592H502V636L455 683V689H61L62 314H68L115 267H153Q208
339 306 339Q359 339 399 317Q429 270 429 208Q429 123 383 72T251 20Q194 20 158 44Q139 80 136 132L90 178Q89 179 89 185H37ZM80 175Q96 10 251 10Q341 10 390 64T439 208Q439 295 391 345T256 396Q154 396 99 324H72L71 679H445V649H104V368Q162 425 262 425Q361
425 416 364Q473 302 473 204Q473 102 413 41Q354 -19 253 -19Q162 -19 110 32T48 175H80Z" />
<glyph unicode="6" glyph-name="six" horiz-adv-x="521" d="M173 -19Q229 -75 323 -75Q422 -75 479 -4Q532 61 532 161Q532 280 466 343L440 368L436 374Q385 451 272 451Q196 451 147 412Q182 609 329 609Q367 609 400 595Q408 580 414 561T425 519H431L478 472H524Q515
565 472 602L465 608Q465 608 465 608Q466 608 466 607L443 631Q434 646 419 659Q366 707 285 707Q37 707 37 323Q37 80 147 6L173 -19ZM434 529Q414 666 279 666Q81 666 81 331V301Q81 295 81 290Q81 285 82 281Q121 441 272 441Q371 441 425 374Q475 312 475
211Q475 112 424 49Q370 -18 273 -18Q47 -18 47 323Q47 697 285 697Q366 697 412 654T466 529H434ZM440 211Q440 299 400 351Q355 411 271 411Q189 411 142 352Q100 298 100 212Q100 128 140 73Q183 12 266 12Q350 12 397 71Q440 124 440 211ZM430 211Q430 126
390 77Q345 22 266 22Q219 22 185 43Q157 92 157 162Q157 242 198 298H197Q242 354 321 354Q363 354 398 335Q430 285 430 211Z" />
<glyph unicode="7" glyph-name="seven" horiz-adv-x="521" d="M430 690V689H48V637H54L101 590L397 589L188 -9H195L242 -56H291L535 637L487 685L489 690H430ZM475 680L236 0H202L429 646L58 647V679H440V680H475Z" />
<glyph unicode="8" glyph-name="eight" horiz-adv-x="521" d="M34 189Q34 75 119 11L149 -17Q207 -74 307 -74Q358 -74 400 -60T472 -17T518 51T534 143Q534 231 484 279L452 310Q443 323 431 334Q505 384 505 474Q505 554 457 601L429 628Q421 644 402 660Q349
708 260 708Q173 708 119 660Q62 610 62 524Q62 429 134 383L145 372Q34 316 34 189ZM176 373Q72 417 72 524Q72 606 126 653Q177 698 260 698Q343 698 395 654Q448 607 448 524Q448 419 345 373Q477 329 477 193Q477 143 462 104T417 38T348 -3T257 -17Q160 -17
102 38T44 189Q44 326 176 373ZM79 194Q79 112 128 64T260 15Q301 15 334 28T392 64T429 120T442 192Q442 273 392 314T260 356Q178 356 131 316Q79 273 79 194ZM108 527Q108 460 149 423T260 386Q327 386 370 423T413 527Q413 560 402 586T370 631T322 659T260
669Q191 669 150 632T108 527ZM136 144Q136 221 186 262Q230 299 310 299Q368 299 411 277Q432 241 432 192Q432 114 385 70T260 25Q200 25 156 54Q136 92 136 144ZM165 477Q165 541 204 576T310 612Q355 612 386 595Q403 566 403 527Q403 464 363 430T260 396Q210
396 176 416Q165 440 165 477Z" />
<glyph unicode="9" glyph-name="nine" horiz-adv-x="521" d="M44 158Q52 64 102 18Q116 6 122 2L150 -25L154 -29Q204 -75 286 -75Q532 -75 532 304Q532 514 448 598L423 623Q363 707 248 707Q146 707 89 634Q37 567 37 466Q37 366 86 302H85Q106 275 126 261L157
231Q210 179 299 179Q368 179 421 218Q388 21 242 21Q193 21 162 40Q148 64 143 105L97 151Q96 152 96 158H44ZM87 148Q107 11 242 11Q440 11 440 346V374Q440 381 440 386Q440 391 439 396Q400 236 249 236Q150 236 96 303Q47 364 47 466Q47 564 97 628Q151 697
248 697Q475 697 475 354Q475 -18 236 -18Q155 -18 109 25T55 148H87ZM81 466Q81 381 122 326Q167 266 250 266Q331 266 379 326Q422 379 422 465Q422 551 382 604Q337 665 255 665Q171 665 124 606Q81 553 81 466ZM138 416Q138 502 179 552Q226 608 305 608Q346
608 378 591Q412 541 412 465Q412 385 372 333Q328 276 250 276Q203 276 165 299Q138 345 138 416Z" />
<glyph unicode=":" glyph-name="colon" horiz-adv-x="284" d="M103 436Q103 388 126 380L168 338Q174 332 185 332Q214 332 214 386Q214 422 202 434L201 435V434L200 435H201L161 475Q153 493 135 493Q103 493 103 436ZM103 41Q103 -6 126 -14L168 -56Q174 -62
185 -62Q214 -62 214 -8Q214 26 202 38L162 78Q155 97 135 97Q103 97 103 41ZM113 436Q113 483 135 483Q157 483 157 436Q157 389 135 389Q113 389 113 436ZM113 41Q113 87 135 87Q157 87 157 41Q157 -5 135 -5Q113 -5 113 41Z" />
<glyph unicode=";" glyph-name="semicolon" horiz-adv-x="284" d="M75 51Q75 19 103 3L119 -12V-128H125L172 -175H221V59L174 106V112H119V106Q75 94 75 51ZM103 436Q103 388 126 380L168 338Q174 332 185 332Q214 332 214 386Q214 422 202 434L201 435V434L200
435H201L161 475Q153 493 135 493Q103 493 103 436ZM85 51Q85 70 98 84T129 99V102H164V-118H129V3Q111 3 98 18T85 51ZM113 436Q113 483 135 483Q157 483 157 436Q157 389 135 389Q113 389 113 436Z" />
<glyph unicode="&lt;" glyph-name="less" horiz-adv-x="532" d="M472 508L59 314V282L68 277L112 234L519 39V88L472 135V140L220 262L519 404V453L472 500V508ZM462 458L123 298L462 134V100L69 288V308L462 492V458Z" />
<glyph unicode="=" glyph-name="equal" horiz-adv-x="833" d="M114 247V196H120L167 149H766V194L719 241V247H114ZM114 405V354H120L167 307H766V352L719 399V405H114ZM709 395V364H124V395H709ZM709 237V206H124V237H709Z" />
<glyph unicode="&gt;" glyph-name="greater" horiz-adv-x="532" d="M59 508V452L68 447L112 404L361 286L59 140V84L64 86L112 39L519 234V262L472 309V314L59 508ZM69 458V492L462 308V288L69 100V134L409 298L69 458Z" />
<glyph unicode="?" glyph-name="question" horiz-adv-x="463" d="M31 567L38 564L84 519L124 507Q148 645 282 645Q334 645 373 628Q389 600 389 557Q389 506 342 471Q319 454 295 436T245 398Q191 338 191 232Q191 219 192 203T195 167H201L248 120H294Q288 157
288 186Q288 269 338 319L435 393Q490 432 490 511Q490 585 443 632L418 657Q359 744 238 744Q153 744 98 701T26 576L31 567ZM36 576Q48 634 83 674Q137 734 238 734Q322 734 375 690Q433 644 433 561Q433 489 381 449L284 375Q231 324 231 236Q231 226 232 212T236
177H204Q201 207 201 232Q201 332 252 391Q256 395 348 463Q399 500 399 557Q399 702 232 702Q92 702 68 566L36 576ZM186 47Q186 0 209 -8L251 -50Q257 -56 267 -56Q296 -56 296 -2Q296 33 284 45L283 46V45L282 46H283L243 86Q235 104 217 104Q186 104 186 47ZM196
47Q196 94 217 94Q239 94 239 47Q239 0 217 0Q196 0 196 47Z" />
<glyph unicode="@" glyph-name="at" horiz-adv-x="1000" d="M212 -62Q338 -188 559 -188Q734 -188 883 -78L864 -49L825 -10L815 4Q670 -93 504 -93Q331 -93 228 -8Q226 -6 225 -5T222 -3Q163 74 163 198Q163 405 317 529Q429 619 590 619Q731 619 830 550Q888
480 888 380Q888 231 817 157Q801 140 793 132T783 122Q763 103 744 94T698 79L762 480L714 528L715 533L663 532L653 471L647 478Q605 537 519 537H512Q413 537 346 462Q289 399 272 291Q270 274 269 261T267 237Q267 184 294 138Q315 99 349 77L377 50Q424 6
487 6H490Q553 6 603 37Q608 31 617 28L657 -11Q669 -23 697 -23Q702 -23 708 -23T721 -21H724Q784 -14 821 8L845 26Q852 31 862 39T885 57Q995 144 995 329Q995 456 906 545L890 561Q864 598 818 632Q708 715 544 715Q296 715 151 538Q52 416 52 256Q52 65 197
-47L212 -62ZM440 63Q353 61 303 144Q277 188 277 237Q277 248 278 261T282 290Q299 395 353 455Q414 525 512 527Q628 530 658 434L672 522L704 523L637 95Q638 90 638 85T641 72Q645 63 662 63Q667 63 672 63T683 65Q737 75 770 98Q778 103 791 116T824 150Q898
230 898 380Q898 521 787 604Q689 676 540 676Q379 676 263 584Q106 458 106 248Q106 79 222 -16Q330 -103 504 -103Q673 -103 812 -9L823 -26Q682 -131 509 -131Q323 -131 208 -43Q62 67 62 256Q62 416 158 532Q301 705 544 705Q705 705 812 624Q938 528 938 379Q938
199 831 113Q809 94 767 64Q712 33 647 33Q603 33 603 68Q603 76 604 78H603L616 163Q558 66 440 63ZM330 151Q361 91 445 93Q539 94 595 179Q642 253 642 351Q642 419 610 457Q575 499 508 498Q420 497 365 422Q319 358 311 264Q310 257 310 250Q310 244 310 239Q310
189 330 151ZM367 189Q367 217 371 240Q384 324 428 378Q479 441 558 441H562Q591 441 615 431Q632 395 632 351Q632 323 628 300Q614 214 572 164Q521 103 445 103H437Q404 103 380 114Q367 143 367 189Z" />
<glyph unicode="A" glyph-name="A" horiz-adv-x="574" d="M-20 -9H-12L34 -56H83L177 188H468L543 -9H548L595 -56H643L365 676L320 721L317 729H265L-20 -9ZM272 719H310L583 0H550L457 245H122L28 0H-4L272 719ZM445 275L291 680L134 275H445ZM430 285H215L323
563L430 285Z" />
<glyph unicode="B" glyph-name="B" horiz-adv-x="618" d="M72 -9H78L125 -56H351Q492 -56 551 -20Q636 31 636 142Q636 229 587 278L557 308Q538 333 522 344Q599 394 599 491Q599 574 552 619L525 645Q492 698 415 718Q366 729 279 729H72V-9ZM82 719H279Q413
719 465 688Q542 643 542 541Q542 420 419 377Q579 346 579 192Q579 84 497 35Q439 0 301 0H82V719ZM294 30Q412 30 456 48Q544 84 544 198Q544 297 462 334Q405 361 295 361H116V30H294ZM283 387Q508 387 508 543Q508 634 435 667Q388 689 281 689H116V387H283ZM173
304H345Q452 304 510 278Q513 275 516 274Q534 242 534 198Q534 91 452 57Q410 40 294 40H173V304ZM173 632H331Q434 632 482 611Q482 610 483 611V610Q498 583 498 543Q498 397 283 397H173V632Z" />
<glyph unicode="C" glyph-name="C" horiz-adv-x="681" d="M623 181L582 203Q541 24 345 24Q259 24 202 72L199 78Q143 170 143 308Q143 449 201 540Q268 648 400 648Q483 648 539 614Q561 584 575 543L579 545L627 497L671 520Q652 573 613 612L608 617L587 637Q564
666 543 683Q466 745 356 745Q194 745 112 628Q41 525 41 358Q41 195 110 93Q139 50 174 27L195 6Q271 -70 400 -70Q500 -70 573 -23Q651 26 675 121L671 129L627 173L623 181ZM618 173Q594 81 519 32Q448 -13 350 -13Q194 -13 118 99Q51 196 51 358Q51 521 119
621Q198 735 356 735Q463 735 537 676Q590 634 612 573L581 557Q532 705 350 705Q215 705 145 594Q86 500 86 358Q86 215 143 124Q211 14 345 14Q438 14 500 57Q570 104 589 188L618 173Z" />
<glyph unicode="D" glyph-name="D" horiz-adv-x="689" d="M72 -9H78L125 -56H297Q454 -56 531 -20Q694 55 694 309Q694 501 601 590L578 612Q539 664 482 693Q411 729 247 729H72V-9ZM82 719H247Q406 719 478 684Q637 604 637 359Q637 108 478 35Q402 0 247 0H82V719ZM255
30Q400 30 469 66Q602 136 602 359Q602 540 507 626Q462 666 388 680Q366 684 333 686T255 688H116V30H255ZM173 631H305Q350 631 383 629T437 623Q491 612 528 589Q592 506 592 359Q592 141 465 75Q397 40 255 40H173V631Z" />
<glyph unicode="E" glyph-name="E" horiz-adv-x="567" d="M72 -9H78L125 -56H588V-10L541 36V42H173V302H494V347L447 394V400H173V630H578V676L531 723V729H72V-9ZM82 719H521V687H116V390H437V359H116V32H531V0H82V719Z" />
<glyph unicode="F" glyph-name="F" horiz-adv-x="523" d="M72 -9H78L125 -56H173V302H480V347L433 394V400H173V630H559V676L512 723V729H72V-9ZM82 719H502V687H116V390H423V359H116V0H82V719Z" />
<glyph unicode="G" glyph-name="G" horiz-adv-x="709" d="M200 8Q279 -71 414 -71Q488 -71 551 -44Q712 24 712 257V278Q712 285 712 290Q712 296 711 301L664 347V354H375V304H381L428 257H611Q605 148 540 86T364 24Q270 24 207 75Q144 165 144 309Q144 451
206 543Q276 648 414 648Q502 648 557 614Q579 584 593 542L601 539L646 494L656 490L693 508Q671 578 632 614L608 637Q531 745 364 745Q202 745 117 627Q42 523 42 359Q42 195 118 91Q148 50 179 29L200 8ZM603 546Q555 705 364 705Q225 705 151 598Q87 506 87
359Q87 212 151 121Q225 14 364 14Q487 14 554 87Q622 161 622 283V314H385V344H654Q655 339 655 334Q655 330 655 325V307Q655 77 498 11Q438 -14 364 -14Q207 -14 125 98Q52 196 52 359Q52 521 125 621Q207 735 364 735Q462 735 530 694Q607 649 634 561L603
546Z" />
<glyph unicode="H" glyph-name="H" horiz-adv-x="686" d="M72 -9H78L125 -56H173V312H561V-9H567L614 -56H661V676L614 723V729H561V409H173V676L126 723V729H72V-9ZM82 719H116V399H571V719H604V0H571V369H116V0H82V719Z" />
<glyph unicode="I" glyph-name="I" horiz-adv-x="207" d="M77 -9H83L130 -56H177V676L130 723V729H77V-9ZM87 719H120V0H87V719Z" />
<glyph unicode="J" glyph-name="J" horiz-adv-x="473" d="M217 23Q170 23 142 42Q141 44 140 46T138 53L94 97Q91 100 89 108Q85 104 84 104Q71 97 41 88Q60 34 105 3L135 -25Q185 -72 264 -72Q455 -72 455 159V676L408 723V729H355V219Q355 122 331 79Q299 23
217 23ZM217 13Q305 13 340 75Q365 121 365 219V719H398V209Q398 -15 214 -15Q93 -15 54 81Q59 82 66 85T85 94Q118 13 217 13Z" />
<glyph unicode="K" glyph-name="K" horiz-adv-x="582" d="M72 -9H78L125 -56H173V217L292 338L556 -9H560L607 -56H665L333 380L625 676L577 724L582 729H511L173 385V676L126 723V729H72V-9ZM82 719H116V314L515 719H558L274 431L601 0H561L252 408L116 270V0H82V719Z" />
<glyph unicode="L" glyph-name="L" horiz-adv-x="509" d="M73 -9H79L126 -56H555V-10L508 36V42H174V676L127 723V729H73V-9ZM83 719H117V32H498V0H83V719Z" />
<glyph unicode="M" glyph-name="M" horiz-adv-x="773" d="M72 -9H78L125 -56H169V548L375 162H380L427 115H455L651 495V-9H657L704 -56H748V676L701 723V729H638L401 253L184 676L141 718L136 729H72V-9ZM82 719H130L392 213L644 719H691V0H661V677L401 172H381L112
677V0H82V719Z" />
<glyph unicode="N" glyph-name="N" horiz-adv-x="682" d="M72 -9H78L125 -56H172V559L562 -9H566L613 -56H657V676L610 723V729H557V107L170 676L129 716L121 729H72V-9ZM82 719H116L567 57V719H600V0H567L115 661V0H82V719Z" />
<glyph unicode="O" glyph-name="O" horiz-adv-x="741" d="M42 359Q42 193 119 89Q132 72 145 59T172 35L197 10Q279 -71 420 -71Q583 -71 669 40Q746 141 746 309Q746 478 670 578Q659 593 643 609L622 630Q537 745 370 745Q205 745 120 630Q42 528 42 359ZM52
359Q52 522 127 623Q211 735 370 735Q531 735 614 624Q689 525 689 359Q689 192 614 95Q532 -14 370 -14Q210 -14 126 95Q52 195 52 359ZM87 359Q87 210 152 118Q226 14 370 14Q515 14 589 118Q654 210 654 359Q654 508 588 600Q513 705 370 705Q225 705 152 600Q87
508 87 359ZM144 309Q144 455 207 545Q279 648 420 648Q506 648 571 606L580 594Q644 509 644 359Q644 211 581 124Q509 24 370 24Q270 24 205 76Q144 167 144 309Z" />
<glyph unicode="P" glyph-name="P" horiz-adv-x="575" d="M278 729H72V-9H78L125 -56H173V275H325Q403 275 437 282Q512 297 553 349T594 479Q594 563 546 611L518 639Q458 729 278 729ZM278 719Q537 719 537 529Q537 453 498 403T386 339Q354 332 275 332H116V0H82V719H278ZM116
689V362H253Q378 362 420 381Q502 417 502 532Q502 662 369 683Q331 689 254 689H116ZM173 632H304Q383 632 419 626Q456 620 475 608Q492 576 492 532Q492 423 416 390Q375 372 253 372H173V632Z" />
<glyph unicode="Q" glyph-name="Q" horiz-adv-x="741" d="M709 -69Q623 -62 584 -43Q582 -40 581 -34Q627 -6 659 29Q746 131 746 309Q746 478 670 578Q659 593 643 609L622 630Q537 745 370 745Q205 745 120 630Q42 528 42 359Q42 193 119 89Q132 72 145 59T172
35L197 10Q279 -71 420 -71Q473 -71 521 -58Q527 -64 544 -76L577 -109Q621 -154 746 -161L755 -122L707 -74L709 -69ZM690 -104Q567 -96 526 -48Q508 -27 497 6Q439 -14 370 -14Q210 -14 126 95Q52 195 52 359Q52 522 127 623Q211 735 370 735Q531 735 614 624Q689
525 689 359Q689 184 604 84Q568 42 522 18Q533 -13 548 -29Q582 -69 696 -78L690 -104ZM489 37Q483 62 474 97Q463 128 447 147Q411 188 298 196L300 228Q343 225 391 211Q455 192 479 154Q493 132 513 50Q548 70 578 106Q654 197 654 359Q654 508 588 600Q513
705 370 705Q225 705 152 600Q87 508 87 359Q87 210 152 118Q226 14 370 14Q434 14 489 37ZM370 24Q270 24 205 76Q144 167 144 309Q144 455 207 545Q279 648 420 648Q506 648 571 606L580 594Q644 509 644 359Q644 197 571 112Q560 100 544 86Q542 90 540 95T535
108Q532 113 529 117T521 125L489 156V158Q488 158 488 159Q459 201 394 221Q373 228 347 232T290 238L288 186H291Q292 185 294 185L341 139Q417 133 454 117Q457 112 463 94T477 43Q426 24 370 24Z" />
<glyph unicode="R" glyph-name="R" horiz-adv-x="622" d="M544 -56H597L595 181Q589 243 555 277L522 310Q624 358 624 481Q624 574 576 621L547 649Q500 729 321 729H72V-9H78L125 -56H173V283H383Q436 283 477 271Q484 254 489 232Q490 224 490 207T491 161V-9H497L544
-56ZM116 340V0H82V719H321Q440 719 495 685Q567 641 567 531Q567 394 437 354Q528 336 538 230Q538 229 538 206Q538 183 539 137L540 0H501V161Q501 191 501 209T499 233Q488 300 442 322Q407 340 333 340H116ZM338 370Q533 370 533 528Q533 661 412 683Q398
685 376 686T321 688H116V370H338ZM173 631H371Q399 631 421 630T461 626Q469 624 479 621T504 612Q523 578 523 528Q523 380 338 380H173V631Z" />
<glyph unicode="S" glyph-name="S" horiz-adv-x="573" d="M35 229Q42 81 132 22L159 -4L160 -5Q191 -5 250 -38Q308 -71 340 -71Q448 -71 513 -19Q586 36 586 141Q586 213 539 260L515 284Q495 317 458 339Q420 364 298 398H295Q299 395 297 395Q296 395 288 397L289
400Q285 401 285 403H282Q201 424 163 445Q152 467 152 497Q152 572 203 613Q249 650 327 650Q390 650 437 624Q466 580 467 514H473L520 467H566Q561 570 507 625L477 655Q412 745 279 745Q187 745 126 699V700Q53 645 53 547Q53 460 121 409L151 380Q152 378
159 373Q195 340 319 306Q321 306 322 305H323Q341 300 359 294T396 283Q444 267 465 255Q485 223 485 182Q485 106 424 63Q368 24 291 24Q217 24 167 61Q140 107 135 176L88 222V229H35ZM78 219Q84 123 139 69T291 14Q374 14 431 56Q495 102 495 182Q495 264 428
307Q411 318 375 331T284 359Q283 360 271 363Q147 398 114 428Q63 474 63 547Q63 639 127 688Q186 735 279 735Q330 735 371 721T442 679T489 613T509 524H477Q475 610 419 660Q364 707 277 707Q197 707 148 668Q95 624 95 547Q95 491 139 450Q168 424 281 392Q283
391 286 391T295 388Q422 350 453 330Q529 281 529 191Q529 91 458 35Q394 -14 290 -14Q236 -14 193 2T118 48T67 122T45 219H78ZM294 398H293H294Z" />
<glyph unicode="T" glyph-name="T" horiz-adv-x="509" d="M230 -9H236L283 -56H331V631H555V676L508 723V729H6V678H12L59 631H230V-9ZM240 688H16V719H498V688H274V0H240V688Z" />
<glyph unicode="U" glyph-name="U" horiz-adv-x="671" d="M67 729V251Q67 122 137 49Q153 32 167 22L191 0Q265 -71 386 -71Q514 -71 583 0T652 201V676L605 723V729H552V267Q552 151 502 90Q446 24 336 24Q252 24 201 60Q167 118 167 217V676L120 723V729H67ZM110
719V267Q110 14 336 14Q562 14 562 267V719H595V251Q595 125 528 56T336 -14Q211 -14 144 55T77 251V719H110Z" />
<glyph unicode="V" glyph-name="V" horiz-adv-x="525" d="M239 -9H244L291 -56H333L588 676L540 724L542 729H486L277 123L87 676L41 721L39 729H-15L239 -9ZM-1 719H32L263 49L493 719H528L278 0H246L-1 719Z" />
<glyph unicode="W" glyph-name="W" horiz-adv-x="824" d="M192 -9H197L244 -56H289L444 379L583 -9H588L635 -56H680L875 676L827 723L829 729H774L617 139L483 505L438 550L435 558H389L238 147L98 676L52 722L50 729H-4L192 -9ZM8 719H42L218 60L396 548H428L607
60L782 719H816L624 0H590L412 501L234 0H200L8 719Z" />
<glyph unicode="X" glyph-name="X" horiz-adv-x="530" d="M-17 -9H-8L38 -56H92L303 261L486 -9H490L537 -56H592L343 319L578 676L530 723L534 729H472L271 424L105 676L67 714L57 729H-6L232 368L-17 -9ZM245 368L12 719H51L265 396L478 719H515L285 369L529
0H491L263 339L38 0H1L245 368Z" />
<glyph unicode="Y" glyph-name="Y" horiz-adv-x="530" d="M238 -9H244L291 -56H338V263L591 676L543 723L547 729H484L273 384L93 676L53 716L45 729H-17L238 312V-9ZM248 318L1 719H39L266 352L490 719H528L281 316V0H248V318Z" />
<glyph unicode="Z" glyph-name="Z" horiz-adv-x="529" d="M0 -9H5L52 -56H576V-12L529 34V40H146L564 632V676L517 723V729H38V678H44L91 631H419L0 37V-9ZM9 33L471 688H48V719H507V685L45 30H519V0H9V33Z" />
<glyph unicode="[" glyph-name="bracketleft" horiz-adv-x="302" d="M207 630H341V675L294 722V728H105V-214H111L158 -261H341V-217L294 -170V-164H207V630ZM115 -204V718H284V687H150V-174H284V-204H115Z" />
<glyph unicode="\" glyph-name="backslash" horiz-adv-x="292" d="M-49 748L265 -92H270L317 -139H367L54 695L9 740L6 748H-49ZM0 738L307 -82H272L-35 738H0Z" />
<glyph unicode="]" glyph-name="bracketright" horiz-adv-x="302" d="M12 -214H18L65 -261H248V675L201 722V728H12V677H18L65 630H146V-164H12V-214ZM22 -174H156V687H22V718H191V-204H22V-174Z" />
<glyph unicode="^" glyph-name="asciicircum" horiz-adv-x="542" d="M242 721L84 456H93L140 409H210L309 577L381 456H386L433 409H503L349 668L308 708L301 721H242ZM295 711L440 466H387L271 662L156 466H103L248 711H295Z" />
<glyph unicode="_" glyph-name="underscore" horiz-adv-x="500" d="M-9 -194V-244H-3L43 -291H557V-247L510 -200V-194H-9ZM500 -204V-234H0V-204H500Z" />
<glyph unicode="`" glyph-name="grave" horiz-adv-x="500" d="M299 527H369L258 701L219 740L210 754H132L247 574H252L299 527ZM253 584L151 744H204L306 584H253Z" />
<glyph unicode="a" glyph-name="a" horiz-adv-x="572" d="M163 -8Q224 -69 325 -69Q420 -69 476 -18L514 -56H559V476L512 523V529H461V449L452 458Q392 540 275 540Q155 540 92 455Q36 378 36 258Q36 138 92 61Q112 34 137 17L163 -8ZM471 112Q422 -12 275 -12Q161
-12 100 67Q46 137 46 258Q46 377 100 449Q160 530 275 530Q420 530 471 400V519H502V0H471V112ZM78 258Q78 153 123 89Q175 14 275 14Q375 14 426 89Q471 153 471 258Q471 362 426 427Q375 502 275 502Q176 502 124 427Q78 362 78 258ZM135 208Q135 307 179 372Q228
445 325 445Q379 445 416 423L418 421Q461 359 461 258Q461 157 419 96Q369 24 275 24Q212 24 171 53Q135 113 135 208Z" />
<glyph unicode="b" glyph-name="b" horiz-adv-x="572" d="M59 -9H65L112 -56H158V21Q161 18 164 16L192 -10Q254 -69 347 -69Q466 -69 528 12Q583 85 583 208Q583 350 506 427L483 450Q482 451 482 452T480 454Q418 540 297 540Q214 540 158 496V675L111 722V728H59V-9ZM69
718H101V401Q155 530 297 530Q410 530 472 449Q526 375 526 258Q526 139 472 67Q412 -12 297 -12Q161 -12 101 110V0H69V718ZM101 258Q101 153 146 89Q197 14 297 14Q396 14 449 89Q494 153 494 258Q494 362 449 427Q396 502 297 502Q197 502 146 427Q101 362 101
258ZM158 208Q158 310 201 372Q250 445 347 445Q399 445 440 422V421H441Q484 359 484 258Q484 157 442 96Q392 24 297 24Q236 24 194 54Q158 115 158 208Z" />
<glyph unicode="c" glyph-name="c" horiz-adv-x="519" d="M472 134L432 157Q417 98 376 61Q333 24 272 24Q211 24 169 54Q133 115 133 208Q133 310 176 372Q225 445 322 445Q370 445 404 426Q407 421 412 411T424 383L428 385L476 338L516 364Q500 407 472 433L443
461Q388 540 272 540Q153 540 90 454Q34 377 34 258Q34 139 89 63Q109 34 137 14L163 -10Q225 -69 319 -69Q409 -69 464 -20Q505 15 523 73L520 81L475 126L472 134ZM466 125Q424 -12 269 -12Q155 -12 97 69Q44 142 44 258Q44 374 98 448Q158 530 272 530Q413 530
457 417L430 399Q413 448 370 475T272 502Q172 502 121 427Q76 362 76 258Q76 153 121 89Q172 14 272 14Q335 14 379 47T439 141L466 125Z" />
<glyph unicode="d" glyph-name="d" horiz-adv-x="572" d="M512 728H461V452L452 461Q391 540 275 540Q155 540 92 454Q36 377 36 258Q36 137 92 61Q112 34 137 17L163 -8Q224 -69 325 -69Q418 -69 474 -17L514 -56H559V675L512 722V728ZM502 0H471V115Q420 -12
275 -12Q160 -12 100 67Q46 139 46 258Q46 375 100 449Q161 530 275 530Q423 530 471 405V718H502V0ZM471 258Q471 362 426 427Q375 502 275 502Q176 502 124 427Q78 362 78 258Q78 153 123 89Q175 14 275 14Q375 14 426 89Q471 153 471 258ZM461 258Q461 157 419
96Q369 24 275 24Q212 24 171 53Q135 113 135 208Q135 307 179 372Q228 445 325 445Q379 445 416 423L418 421Q461 359 461 258Z" />
<glyph unicode="e" glyph-name="e" horiz-adv-x="523" d="M473 122L428 146Q381 24 263 24Q210 24 171 51Q133 113 133 198V199H538V225Q538 341 485 409Q474 422 467 430L440 456Q439 458 439 458T437 461Q379 540 263 540Q148 540 87 453Q33 378 33 258Q33 142
86 63Q97 47 110 34T138 11L162 -12Q219 -69 313 -69Q394 -69 451 -24V-23Q496 12 519 71L471 118Q472 119 472 120Q472 121 473 122ZM263 -12Q151 -12 93 70Q43 141 43 258Q43 372 94 446Q152 530 263 530Q372 530 429 455Q481 388 481 275V256H76V248Q76 152
121 88Q172 14 263 14Q389 14 434 132L460 118Q436 55 384 22T263 -12ZM447 285Q447 376 404 435Q356 502 269 502Q178 502 128 437Q83 380 77 285H447ZM184 383H183Q233 445 319 445Q363 445 398 425Q433 374 437 295H142Q157 348 184 383Z" />
<glyph unicode="f" glyph-name="f" horiz-adv-x="211" d="M38 592V-9H44L91 -56H136V433H238V476L191 523V529H136V543Q136 596 144 614Q158 640 200 640H294V681L247 728V734L145 733Q78 732 54 691V692Q38 664 38 592ZM48 592Q48 660 63 686Q82 721 145 723L237
724V697H150Q101 697 88 667Q79 647 79 593V519H181V490H79V0H48V592Z" />
<glyph unicode="g" glyph-name="g" horiz-adv-x="572" d="M439 -87Q394 -169 269 -169Q206 -169 164 -145Q160 -137 158 -125T154 -97L107 -50V-44H57Q58 -138 122 -180Q123 -180 125 -182L153 -210Q207 -264 311 -264Q460 -264 525 -171Q559 -122 559 -21V476L512
523V529H461V449L455 455Q394 540 275 540Q155 540 92 455Q36 378 36 258Q36 92 137 14L164 -11Q226 -70 323 -70Q402 -70 455 -32Q450 -66 439 -87ZM471 111Q417 -13 273 -13Q158 -13 99 67Q46 140 46 258Q46 377 100 449Q160 530 275 530Q344 530 396 498T471
403V519H502V28Q502 -69 469 -117Q407 -207 261 -207Q180 -207 128 -172Q68 -131 67 -54H97Q106 -179 269 -179Q399 -179 448 -91Q471 -50 471 58V111ZM471 258Q471 362 426 427Q375 502 275 502Q176 502 124 427Q78 362 78 258Q78 153 123 89Q175 14 275 14Q375
14 426 89Q471 153 471 258ZM461 258Q461 157 419 96Q369 24 275 24Q212 24 171 53Q135 113 135 208Q135 307 179 372Q228 445 325 445Q379 445 416 423L418 421Q461 359 461 258Z" />
<glyph unicode="h" glyph-name="h" horiz-adv-x="521" d="M59 -9H65L112 -56H158V228Q158 257 159 279T163 317Q184 444 327 444Q359 444 394 432Q412 396 412 334V-9H418L465 -56H511V294Q511 393 463 441L461 442L462 441L433 470Q388 540 276 540Q206 540 158
510V675L111 722V728H59V-9ZM69 718H101V434Q150 530 276 530Q454 530 454 344V0H422V334Q422 417 392 456Q357 501 277 501Q128 501 106 368Q104 354 103 332T101 278V0H69V718Z" />
<glyph unicode="i" glyph-name="i" horiz-adv-x="175" d="M62 -9H68L115 -56H160V476L113 523V529H62V-9ZM72 519H103V0H72V519ZM56 680Q56 630 78 623L121 581Q127 575 137 575Q166 575 166 630Q166 666 154 678L113 719Q105 737 87 737Q56 737 56 680ZM66 680Q66
727 87 727Q109 727 109 680Q109 632 87 632Q66 632 66 680Z" />
<glyph unicode="j" glyph-name="j" horiz-adv-x="175" d="M63 529V-68Q63 -128 57 -141Q46 -165 4 -165H-59V-215H-53L-6 -262H61Q126 -262 147 -224Q161 -198 161 -129V476L114 523V529H63ZM104 519V-79Q104 -149 91 -171Q72 -205 11 -205H-49V-175H4Q52 -175
66 -145Q73 -130 73 -68V519H104ZM54 680Q54 630 76 623L119 581Q125 575 135 575Q164 575 164 630Q164 666 152 678L111 719Q103 737 85 737Q54 737 54 680ZM64 680Q64 727 85 727Q107 727 107 680Q107 632 85 632Q64 632 64 680Z" />
<glyph unicode="k" glyph-name="k" horiz-adv-x="458" d="M59 -9H65L112 -56H158V132L264 235L428 -9H432L479 -56H532L309 279L506 476L458 524L463 529H396L158 293V675L111 722V728H59V-9ZM69 718H101V223L400 519H439L250 330L469 0H433L228 308L101 185V0H69V718Z" />
<glyph unicode="l" glyph-name="l" horiz-adv-x="175" d="M62 -9H68L115 -56H160V675L113 722V728H62V-9ZM72 718H103V0H72V718Z" />
<glyph unicode="m" glyph-name="m" horiz-adv-x="817" d="M59 -9H65L112 -56H158V230Q158 259 159 280T163 318Q184 444 311 444Q345 444 368 434Q368 432 370 430Q384 396 384 312V-9H390L437 -56H482V230Q482 331 510 380Q546 444 635 444Q669 444 692 434Q692
432 694 430Q708 396 708 312V-9H714L761 -56H807V294Q807 398 759 445L728 475Q686 540 586 540Q482 540 424 456L401 480Q356 540 263 540Q186 540 137 497L111 523V529H59V-9ZM69 519H101V434Q152 530 263 530Q389 530 417 424Q471 530 586 530Q750 530 750
344V0H718V312Q718 398 703 434Q675 501 585 501Q492 501 454 433Q425 380 425 280V0H394V312Q394 398 379 434Q351 501 261 501Q128 501 106 369Q104 353 103 331T101 280V0H69V519Z" />
<glyph unicode="n" glyph-name="n" horiz-adv-x="521" d="M59 -9H65L112 -56H158V228Q158 257 159 279T163 317Q184 444 327 444Q359 444 394 432Q412 396 412 334V-9H418L465 -56H511V294Q511 394 463 441L433 470Q388 540 276 540Q191 540 138 496L111 523V529H59V-9ZM69
519H101V434Q150 530 276 530Q454 530 454 344V0H422V334Q422 417 392 456Q357 501 277 501Q128 501 106 368Q104 354 103 332T101 278V0H69V519Z" />
<glyph unicode="o" glyph-name="o" horiz-adv-x="545" d="M34 258Q34 138 90 61Q110 34 135 17L161 -8Q222 -69 322 -69Q441 -69 503 12Q558 85 558 208Q558 350 481 427L458 450Q457 451 457 452T455 454Q393 540 272 540Q153 540 90 454Q34 377 34 258ZM44 258Q44
374 98 448Q158 530 272 530Q385 530 447 449Q501 375 501 258Q501 137 447 67Q386 -12 272 -12Q157 -12 97 68Q44 139 44 258ZM76 258Q76 153 121 89Q172 14 272 14Q371 14 424 89Q469 153 469 258Q469 362 424 427Q371 502 272 502Q172 502 121 427Q76 362 76
258ZM133 208Q133 310 176 372Q225 445 322 445Q374 445 415 422V421H416Q459 359 459 258Q459 157 417 96Q367 24 272 24Q211 24 169 54Q133 115 133 208Z" />
<glyph unicode="p" glyph-name="p" horiz-adv-x="572" d="M59 -214H65L112 -261H158V17Q160 15 161 15L190 -13Q246 -69 347 -69Q466 -69 528 12Q583 85 583 208Q583 352 507 428L480 455Q419 540 297 540Q205 540 146 487L111 523V529H59V-214ZM69 519H101V400Q152
530 297 530Q412 530 472 449Q526 377 526 258Q526 137 472 67Q411 -12 297 -12Q150 -12 101 112V-204H69V519ZM101 258Q101 153 146 89Q197 14 297 14Q396 14 449 89Q494 153 494 258Q494 362 449 427Q396 502 297 502Q197 502 146 427Q101 362 101 258ZM158 208Q158
310 201 372Q250 445 347 445Q399 445 440 422V421H441Q484 359 484 258Q484 157 442 96Q392 24 297 24Q236 24 194 54Q158 115 158 208Z" />
<glyph unicode="q" glyph-name="q" horiz-adv-x="572" d="M163 -8Q224 -69 325 -69Q407 -69 461 -30V-214H467L514 -261H559V476L512 523V529H461V449L452 458Q392 540 275 540Q155 540 92 455Q36 378 36 258Q36 138 92 61Q112 34 137 17L163 -8ZM471 112Q422
-12 275 -12Q161 -12 100 67Q46 137 46 258Q46 377 100 449Q160 530 275 530Q420 530 471 400V519H502V-204H471V112ZM78 258Q78 153 123 89Q175 14 275 14Q375 14 426 89Q471 153 471 258Q471 362 426 427Q375 502 275 502Q176 502 124 427Q78 362 78 258ZM135
208Q135 307 179 372Q228 445 325 445Q379 445 416 423L418 421Q461 359 461 258Q461 157 419 96Q369 24 275 24Q212 24 171 53Q135 113 135 208Z" />
<glyph unicode="r" glyph-name="r" horiz-adv-x="263" d="M59 -9H65L112 -56H158V295Q158 345 185 377Q221 416 252 426Q270 432 307 432L337 474L289 522L293 527H268Q188 527 140 494L111 523V529H59V-9ZM69 519H101V433Q141 518 273 517L253 489Q219 489 200
483Q155 469 128 430T101 345V0H69V519Z" />
<glyph unicode="s" glyph-name="s" horiz-adv-x="481" d="M82 164H39Q46 67 106 20Q108 18 110 16T117 11L146 -16Q156 -26 158 -27Q212 -69 298 -69Q377 -69 429 -32Q490 8 490 83Q490 139 457 171L424 203Q407 228 386 242V241Q365 255 328 268Q313 273 298
278T268 288H262Q194 304 157 327Q154 336 154 347Q154 396 199 423Q236 445 288 445Q331 445 358 432Q371 409 377 371H383L430 324H475Q467 396 426 437L397 466Q391 475 383 483L367 499Q314 540 242 540Q164 540 114 506Q54 465 54 393Q54 330 105 291V292L108
289L140 258Q150 248 152 247V248Q190 217 318 184Q318 184 321 184T332 181L342 178Q343 177 345 177Q358 172 384 162Q390 148 390 134Q390 79 344 51Q304 26 247 26Q189 26 155 48Q148 62 144 76T138 105L92 151Q91 152 91 156L82 164ZM81 154Q106 16 247 16Q310
16 351 43Q400 74 400 134Q400 206 297 234Q202 260 197 262Q134 281 106 303Q64 336 64 393Q64 461 122 498Q172 530 242 530Q315 530 362 492T417 381H386Q370 502 238 502Q183 502 143 478Q97 450 97 397Q97 319 256 279Q257 278 266 276Q348 255 380 233Q433
197 433 133Q433 63 374 22Q322 -12 248 -12Q162 -12 112 28Q58 71 50 154H81Z" />
<glyph unicode="t" glyph-name="t" horiz-adv-x="187" d="M37 671V-9H43L90 -56H136V434H240V476L193 523V529H136V618L89 665V671H37ZM79 661V519H183V491H79V0H47V661H79Z" />
<glyph unicode="u" glyph-name="u" horiz-adv-x="521" d="M461 529H410V238Q410 212 409 190T405 148V149Q383 25 244 25Q202 25 169 39Q155 75 155 132V476L108 523V529H57V172Q57 52 128 5L158 -23Q205 -69 295 -69Q381 -69 433 -26L463 -56H508V476L461 523V529ZM451
0H420V81Q370 -12 245 -12Q67 -12 67 172V519H98V182Q98 100 129 60Q163 15 244 15Q392 15 415 147Q417 161 418 183T420 238V519H451V0Z" />
<glyph unicode="v" glyph-name="v" horiz-adv-x="444" d="M194 -9H199L246 -56H292L498 476L451 523L453 529H397L233 104L96 476L51 521L48 529H-5L194 -9ZM8 519H41L219 37L404 519H437L237 0H201L8 519Z" />
<glyph unicode="w" glyph-name="w" horiz-adv-x="669" d="M171 -9H176L223 -56H265L364 232L451 -9H456L503 -56H545L716 476L668 523L670 529H617L487 125L402 369L356 414L354 422H311L210 129L101 476L55 521L53 529H0L171 -9ZM13 519H46L194 49L318 412H347L474
49L624 519H656L490 0H458L332 355L210 0H178L13 519Z" />
<glyph unicode="x" glyph-name="x" horiz-adv-x="410" d="M57 514L46 529H-16L172 268L-23 -9H-14L32 -56H86L245 167L373 -9H377L424 -56H479L282 218L466 476L418 524L422 529H360L210 317L95 476L57 514ZM-3 0L185 268L3 519H41L205 294L365 519H402L223 268L415
0H378L204 243L32 0H-3Z" />
<glyph unicode="y" glyph-name="y" horiz-adv-x="521" d="M158 146V487L111 534V540H59V186Q59 66 130 19L160 -10Q206 -56 297 -56Q362 -56 409 -29V-36Q405 -60 394 -83Q352 -164 243 -164Q194 -164 156 -144Q152 -134 150 -122T146 -94L99 -47V-41H52Q53 -91
67 -119Q77 -139 117 -178L146 -207Q197 -258 286 -258Q465 -258 501 -110Q511 -71 511 -38V487L464 534V540H412V252Q412 225 411 203T407 163V164Q384 39 246 39Q205 39 172 53Q158 89 158 146ZM444 -58Q411 -201 236 -201Q160 -201 114 -164Q63 -124 62 -51H89Q92
-114 138 -145Q179 -174 243 -174Q313 -174 359 -140Q409 -104 419 -37Q422 -18 422 16V96Q372 0 247 0Q69 0 69 186V530H101V196Q101 113 131 74Q165 29 246 29Q393 29 417 162Q419 176 420 198T422 252V530H454V11Q454 -17 444 -58Z" />
<glyph unicode="z" glyph-name="z" horiz-adv-x="437" d="M7 -9H13L60 -56H477V-11L430 35V41H156L466 431V476L419 523V529H27V478H33L80 431H317L7 39V-9ZM17 37L375 488H37V519H409V482L51 31H420V0H17V37Z" />
<glyph unicode="{" glyph-name="braceleft" horiz-adv-x="500" d="M376 731H350Q201 731 201 616Q201 567 225 486Q250 404 250 363Q250 286 152 286H139Q134 286 131 287H124V231H130L177 184L206 185H217Q234 185 249 182Q250 177 250 173T251 165Q251 125 225
38T199 -90Q199 -158 249 -187L281 -219Q319 -257 408 -257H423V-209L376 -162V-156H362Q332 -156 306 -148Q305 -145 305 -138V-128Q305 -91 331 -5Q357 79 357 122Q357 165 332 190L328 193Q328 194 327 194L311 211Q358 234 358 298Q358 342 334 426Q310 511
310 555Q310 631 396 631H406Q409 631 413 631T423 629V678L376 725V731ZM350 721H366V687Q363 688 356 688H346Q253 688 253 605Q253 561 277 476Q301 392 301 348Q301 271 230 259Q300 243 300 172Q300 131 274 47T248 -78Q248 -167 366 -166V-200Q209 -203 209
-90Q209 -47 235 37Q261 123 261 165Q261 246 156 242L134 241V277Q260 269 260 363Q260 407 235 489Q211 570 211 616Q211 721 350 721Z" />
<glyph unicode="|" glyph-name="bar" horiz-adv-x="500" d="M222 774V-244H228L275 -291H325V721L278 768V774H222ZM268 764V-234H232V764H268Z" />
<glyph unicode="}" glyph-name="braceright" horiz-adv-x="500" d="M79 731V676H81Q82 677 84 677L132 629Q137 630 141 630T148 631H159Q166 631 189 628Q192 617 192 605Q192 561 168 476Q144 392 144 348Q144 285 186 261L190 257Q144 232 144 172Q144 130
170 44Q197 -40 197 -78Q197 -156 93 -156H79V-210H85L132 -257H147Q302 -257 302 -140Q302 -98 276 -12Q251 69 251 115Q251 185 337 185H348L377 184V234L330 281V287H322Q319 286 314 286H302Q270 286 253 293Q252 296 252 302V313Q252 356 276 439Q300 523
300 566Q300 616 273 643L269 646L238 678Q205 731 105 731H79ZM105 721Q243 721 243 616Q243 573 219 489Q195 406 195 363Q195 269 320 277V241L298 242Q194 247 194 165Q194 119 219 37Q245 -47 245 -90Q245 -203 89 -200V-166Q207 -167 207 -78Q207 -37 180
46Q154 130 154 172Q154 243 224 259Q154 271 154 348Q154 392 178 476Q202 561 202 605Q202 688 109 688H99Q92 688 89 687V721H105ZM269 645H270L269 646V645Z" />
<glyph unicode="~" glyph-name="asciitilde" horiz-adv-x="602" d="M546 381Q453 288 401 288Q369 288 305 322Q235 359 201 359Q133 359 56 279V214L61 219L109 171Q197 262 251 262Q277 262 349 227T451 192Q516 192 593 269V324L546 371V381ZM536 322Q463 249
401 249Q372 249 300 284T201 319Q145 319 66 238V275Q137 349 201 349Q231 349 300 313Q372 278 401 278Q457 278 536 357V322Z" />
</font>
</defs>
</svg>
